<svg id="visual" viewBox="0 0 900 600" width="900" height="600" xmlns="http://www.w3.org/2000/svg" xmlns:xlink="http://www.w3.org/1999/xlink" version="1.1"><rect x="0" y="0" width="900" height="600" fill="#Fff"></rect><defs><linearGradient id="grad1_0" x1="33.3%" y1="0%" x2="100%" y2="100%"><stop offset="20%" stop-color="#ffffff" stop-opacity="1"></stop><stop offset="80%" stop-color="#ffffff" stop-opacity="1"></stop></linearGradient></defs><defs><linearGradient id="grad2_0" x1="0%" y1="0%" x2="66.7%" y2="100%"><stop offset="20%" stop-color="#ffffff" stop-opacity="1"></stop><stop offset="80%" stop-color="#ffffff" stop-opacity="1"></stop></linearGradient></defs><g transform="translate(900, 0)"><path d="M0 486.7C-61.1 468.1 -122.2 449.5 -174.9 422.2C-227.6 394.9 -271.9 359 -320.3 320.3C-368.7 281.6 -421.3 240.1 -449.7 186.3C-478.1 132.4 -482.4 66.2 -486.7 0L0 0Z" fill="#757575"></path></g><g transform="translate(0, 600)"><path d="M0 -486.7C51.1 -440.2 102.2 -393.6 151.2 -364.9C200.1 -336.3 246.9 -325.6 301.2 -301.2C355.6 -276.8 417.5 -238.8 449.7 -186.3C481.9 -133.8 484.3 -66.9 486.7 0L0 0Z" fill="#757575"></path></g></svg>